<svg width="82" height="79" viewBox="0 0 82 79" fill="none" xmlns="http://www.w3.org/2000/svg">
<path d="M53.7549 20.2753V73.677C53.7549 75.101 52.5679 76.5251 50.906 76.5251H4.84888C3.42443 76.5251 2 75.3384 2 73.677V4.84814C2 3.4241 3.18702 2 4.84888 2H35.7119L53.7549 20.2753ZM53.7549 20.2753H38.3234C36.899 20.2753 35.4745 19.0886 35.4745 17.4272V2L53.7549 20.2753ZM80.1072 38.7878V19.5633H63.4887M68.4742 76.2877V70.8289M13.1582 16.9525H27.8775M13.1582 30.9556H42.5967M13.1582 39.0252H42.5967M13.1582 47.0948H42.5967M13.1582 55.4017H27.8775M63.4887 11.2563H73.4598V62.9966C73.4598 73.2023 63.4887 73.2023 63.4887 62.9966V37.1265V11.2563Z" stroke="white" stroke-width="3" stroke-miterlimit="22.9256" stroke-linecap="round" stroke-linejoin="round"/>
</svg>
