<svg width="89" height="89" viewBox="0 0 89 89" fill="none" xmlns="http://www.w3.org/2000/svg">
<path d="M84.9174 80.8906H4.04468C1.81026 80.8906 0 82.7009 0 84.9372C0 87.1697 1.81026 88.98 4.04468 88.98H84.9156C87.15 88.98 88.9602 87.1697 88.9602 84.9372C88.9583 82.7009 87.1481 80.8906 84.9174 80.8906Z" fill="white"/>
<path d="M9.09839 70.3778C6.86397 70.3778 5.05371 72.1881 5.05371 74.4225C5.05371 76.6569 6.86397 78.4691 9.09839 78.4691H79.8614C82.0958 78.4691 83.906 76.6569 83.906 74.4225C83.906 72.1881 82.0958 70.3778 79.8614 70.3778H78.8521V33.9833H79.8614C80.9805 33.9833 81.8818 33.0781 81.8818 31.9628C81.8818 30.8475 80.9767 29.9424 79.8614 29.9424H9.09839C7.98118 29.9424 7.07794 30.8475 7.07794 31.9628C7.07794 33.0781 7.98307 33.9833 9.09839 33.9833H10.1096V70.3759H9.09839V70.3778ZM70.7627 33.9833V70.3759H58.6325V33.9833H70.7627ZM50.5431 33.9833V70.3759H38.4128V33.9833H50.5431ZM18.1951 33.9833H30.3254V70.3759H18.1951V33.9833Z" fill="white"/>
<path d="M4.04476 26.3053H84.9156C84.9289 26.3053 84.944 26.3053 84.9554 26.3053C87.1917 26.3053 89.0001 24.4951 89.0001 22.2607C89.0001 20.4845 87.8564 18.9791 86.2676 18.4337L46.1428 0.378483C45.088 -0.0949111 43.8818 -0.0949111 42.8252 0.378483L2.38598 18.5739C0.645786 19.3578 -0.31047 21.2476 0.0909685 23.1109C0.490513 24.9742 2.13792 26.3053 4.04476 26.3053Z" fill="white"/>
</svg>
