<svg width="84" height="83" viewBox="0 0 84 83" fill="none" xmlns="http://www.w3.org/2000/svg">
<path d="M67.4502 74.1369H55.8304M3.89713 80.5456L2 62.981V61.0821C2 57.047 6.26849 54.6734 9.58842 53.9613C12.6712 53.2493 24.5282 50.6383 28.5595 48.0273H28.7967L35.6737 79.783L39.9422 59.1833L36.3851 50.1636H47.7677L44.2107 59.1833L48.242 79.783L55.3562 48.0273H55.5933C59.3875 50.6383 71.2444 53.2493 74.5644 53.9613C78.1214 54.6734 82.1528 57.047 82.1528 61.0821V62.981L80.2557 80.5456H3.89713Z" stroke="white" stroke-width="3" stroke-miterlimit="22.9256" stroke-linecap="round" stroke-linejoin="round"/>
<path d="M41.822 43.8065C47.2762 43.5691 53.2046 38.1098 55.3389 30.7517L56.2874 31.2264C57.4731 31.2264 58.4217 30.5143 58.6588 29.3275L59.6074 22.6814C59.6074 21.4946 58.8959 20.5452 57.7102 20.3078H56.9989C57.236 19.121 57.4731 18.1716 57.4731 16.9848V14.6112C57.4731 10.1014 54.6275 6.30363 50.8332 4.64211C49.8847 4.16739 48.9361 3.93003 47.9876 3.45531C43.0077 1.55644 38.7392 1.55644 38.0278 3.21795V3.69267H36.8421C30.9136 3.69267 26.1709 8.43986 26.1709 14.3739V16.7475C26.1709 17.9342 26.408 19.121 26.6451 20.0705H25.9337C24.748 20.0705 23.7994 21.2573 24.0366 22.4441L24.9852 29.0902C24.9852 30.277 26.1708 31.2264 27.3565 30.989L28.3051 30.7517C30.4393 38.1098 36.3678 43.5691 41.822 43.8065Z" fill="white" stroke="white" stroke-width="3" stroke-miterlimit="22.9256" stroke-linecap="round" stroke-linejoin="round"/>
</svg>
