<svg width="101" height="36" viewBox="0 0 101 36" fill="none" xmlns="http://www.w3.org/2000/svg">
<path d="M38.5758 9.37827C38.7111 9.53978 38.8464 9.71923 38.9817 9.88073C39.117 10.0602 39.2329 10.2217 39.3489 10.4011C39.5808 10.7421 39.8127 11.101 40.0253 11.4419C40.2379 11.8009 40.4505 12.1418 40.6438 12.5007L40.7598 12.716C40.7984 12.6443 40.8371 12.5725 40.8757 12.5007C40.9723 12.3213 41.069 12.1418 41.1656 11.9624C41.2623 11.7829 41.3589 11.6035 41.4748 11.424C41.6874 11.0651 41.9 10.7241 42.132 10.3832C42.3639 10.0422 42.5958 9.68334 42.8471 9.34238C42.8277 9.53978 42.7697 9.71923 42.7311 9.91662C42.6924 10.114 42.6345 10.2935 42.5765 10.4729C42.4605 10.8498 42.3252 11.2087 42.1899 11.5855C42.1126 11.765 42.0547 11.9624 41.9773 12.1418C41.9 12.3213 41.8227 12.5007 41.7454 12.6981C41.5908 13.057 41.4169 13.4159 41.2429 13.7748L40.7984 14.69L40.3346 13.7927L40.064 13.2544L39.8127 12.716C39.6388 12.3571 39.4842 11.9803 39.3296 11.6214C39.1749 11.2446 39.0397 10.8857 38.9044 10.5088C38.8464 10.3294 38.7884 10.132 38.7304 9.95251C38.6724 9.75512 38.6145 9.57567 38.5758 9.37827ZM41.4748 4.65873C42.1706 4.569 42.905 4.67667 43.5621 4.94585C44.2193 5.21502 44.7991 5.66365 45.2436 6.18405C45.6881 6.72241 45.9973 7.33254 46.1713 7.97856C46.3259 8.62458 46.3645 9.30649 46.2099 9.93457C46.152 9.28855 46.036 8.66047 45.8041 8.06828C45.5915 7.4761 45.2629 6.9198 44.8571 6.43529C44.4512 5.95077 43.9487 5.53803 43.3689 5.23297C42.8084 4.94585 42.1513 4.74845 41.4748 4.65873ZM34.4785 9.39622C34.4785 11.7111 36.044 13.6851 38.2666 14.5464V15.2822C38.2666 15.8205 38.7498 16.2692 39.3682 16.2692H42.1899C42.7891 16.2692 43.2916 15.8385 43.2916 15.2822V14.5644C45.5335 13.703 47.1183 11.7111 47.1183 9.39622C47.1183 6.29173 44.2966 3.76147 40.7984 3.76147C37.3002 3.77942 34.4785 6.29173 34.4785 9.39622Z" fill="#F6931F"/>
<path d="M45.8237 8.08635C45.6111 7.49416 45.2825 6.93787 44.8766 6.45335C44.4708 5.96884 43.9683 5.5561 43.3885 5.25103C42.8087 4.94597 42.1515 4.74857 41.4558 4.65885C42.1515 4.56912 42.886 4.67679 43.5431 4.94597C44.2002 5.21514 44.78 5.66377 45.2245 6.18418C45.669 6.72253 45.9783 7.33266 46.1522 7.97868C46.3068 8.6247 46.3455 9.30661 46.1909 9.93469C46.1715 9.30661 46.0363 8.67854 45.8237 8.08635ZM40.876 3.77954V12.5726C40.876 12.5547 40.8953 12.5367 40.8953 12.5188C40.9919 12.3393 41.0886 12.1599 41.1852 11.9804C41.2818 11.801 41.3785 11.6215 41.4944 11.4421C41.707 11.0832 41.9196 10.7422 42.1516 10.4013C42.3835 10.0603 42.6154 9.7014 42.8666 9.36045C42.8473 9.55784 42.7893 9.73729 42.7507 9.93469C42.712 10.1321 42.654 10.3115 42.5961 10.491C42.4801 10.8678 42.3448 11.2267 42.2095 11.6036C42.1322 11.783 42.0742 11.9625 41.9969 12.1599C41.9196 12.3393 41.8423 12.5188 41.765 12.7162C41.6104 13.0751 41.4365 13.434 41.2625 13.7929L40.8953 14.5645V16.2513H42.2289C42.828 16.2513 43.3305 15.8207 43.3305 15.2644V14.5645C45.5724 13.7031 47.1572 11.7112 47.1572 9.39634C47.1186 6.30979 44.3162 3.81543 40.876 3.77954Z" fill="#F9AF3B"/>
<path d="M38.2874 16.5547H43.2544C43.3317 16.5547 43.4091 16.6444 43.4091 16.77C43.4091 16.8956 43.3317 16.9854 43.2544 16.9854H38.2874C38.2101 16.9854 38.1328 16.8956 38.1328 16.77C38.1328 16.6444 38.1908 16.5547 38.2874 16.5547Z" fill="#009397"/>
<path d="M39.5053 17.2363H42.0564C42.501 17.2363 42.8488 17.4696 42.8488 17.7388C42.8488 18.0259 42.4816 18.2412 42.0564 18.2412H39.5053C39.0608 18.2412 38.7129 18.008 38.7129 17.7388C38.7129 17.4696 39.0608 17.2363 39.5053 17.2363Z" fill="#009397"/>
<path d="M39.5431 18.4197H42.0943C42.5388 18.4197 42.8867 18.653 42.8867 18.9221C42.8867 19.2093 42.5195 19.4246 42.0943 19.4246H39.5431C39.0986 19.4246 38.7507 19.1913 38.7507 18.9221C38.7314 18.653 39.0986 18.4197 39.5431 18.4197Z" fill="#009397"/>
<path d="M39.5431 19.605H42.0943C42.5388 19.605 42.8867 19.8383 42.8867 20.1074C42.8867 20.3946 42.5195 20.6099 42.0943 20.6099H39.5431C39.0986 20.6099 38.7507 20.3766 38.7507 20.1074C38.7314 19.8383 39.0986 19.605 39.5431 19.605Z" fill="#009397"/>
<path d="M40.2185 20.772H41.4168C41.5907 20.772 41.7067 20.8617 41.7067 20.9694C41.7067 21.077 41.3201 21.2385 41.1655 21.2385H40.4697C40.2958 21.2385 39.9286 21.077 39.9286 20.9694C39.9093 20.8438 40.0446 20.772 40.2185 20.772Z" fill="#009397"/>
<path d="M43.9737 0.623063L43.0205 2.93604L43.6884 3.17334L44.6416 0.860364L43.9737 0.623063Z" fill="#F6931F"/>
<path d="M49.1259 4.20112L46.8906 5.55176L47.2806 6.10823L49.5159 4.75759L49.1259 4.20112Z" fill="#F6931F"/>
<path d="M48.3739 9.76219L48.3369 10.4253L51.0005 10.5534L51.0375 9.89029L48.3739 9.76219Z" fill="#F6931F"/>
<path d="M46.9177 13.9957L46.4678 14.5117L48.5407 16.0699L48.9906 15.5538L46.9177 13.9957Z" fill="#F6931F"/>
<path d="M34.0051 13.4555L31.7695 14.8062L32.1595 15.3627L34.3951 14.0121L34.0051 13.4555Z" fill="#F6931F"/>
<path d="M30.2683 9.01146L30.2314 9.67456L32.8951 9.8022L32.932 9.1391L30.2683 9.01146Z" fill="#F6931F"/>
<path d="M32.7452 3.49735L32.2959 4.01392L34.3709 5.56985L34.8202 5.05328L32.7452 3.49735Z" fill="#F6931F"/>
<path d="M38.2345 0.376884L37.5439 0.549316L38.2366 2.94079L38.9272 2.76836L38.2345 0.376884Z" fill="#F6931F"/>
<path d="M3.69143 33.0642V30.5519H5.3922C5.99133 30.5519 7.36354 30.5519 7.36354 31.7722C7.36354 33.0463 5.95268 33.0642 5.3922 33.0642H3.69143ZM3.69143 28.1114V25.7427H5.23759C6.49383 25.7427 6.93835 26.3169 6.93835 26.9629C6.93835 27.4115 6.6871 28.1114 5.23759 28.1114H3.69143ZM0 23.2842V35.5048H6.72576C9.7794 35.5048 11.0357 33.8179 11.0357 32.0952C11.0357 29.8521 9.12229 29.1702 8.25258 28.9728V28.9369C9.31556 28.5959 10.3012 27.6807 10.3012 26.3887C10.3012 25.4376 9.95335 23.2842 6.37787 23.2842H0Z" fill="#E03123"/>
<path d="M45.7846 35.5048H49.3408V28.1652L54.2111 35.5048H58.0185V23.2842H54.4624V30.4981L49.6693 23.2842H45.8039V35.5048H45.7846ZM39.5614 35.5048H43.2528V23.2842H39.5614V35.5048ZM31.4247 26.1913L32.9322 30.6955H29.9172L31.4247 26.1913ZM24.5057 35.5048H28.4484L29.1828 33.3872H33.6473L34.3818 35.5048H38.3244L33.6473 23.2842H29.1828L24.5057 35.5048ZM16.6397 28.7754V25.958H17.548C18.8623 25.958 19.2681 26.6758 19.2681 27.3577C19.2681 28.0755 18.8623 28.7754 17.548 28.7754H16.6397ZM12.9482 35.5048H16.6397V31.4671L19.4227 35.5048H23.8873L20.1958 30.6237C21.4327 30.2289 22.9596 29.2599 22.9596 26.9629C22.9596 26.4066 22.805 23.3021 18.4178 23.3021H12.9482V35.5048Z" fill="#009397"/>
<path d="M64.3399 33.0642V30.5519H66.0406C66.6398 30.5519 68.012 30.5519 68.012 31.7722C68.012 33.0463 66.6011 33.0642 66.0406 33.0642H64.3399ZM64.3399 28.1114V25.7427H65.886C67.1423 25.7427 67.5868 26.3169 67.5868 26.9629C67.5868 27.4115 67.3355 28.1114 65.886 28.1114H64.3399ZM60.6484 23.2842V35.5048H67.3742C70.4279 35.5048 71.6841 33.8179 71.6841 32.0952C71.6841 29.8521 69.7707 29.1702 68.901 28.9728V28.9369C69.964 28.5959 70.9497 27.6807 70.9497 26.3887C70.9497 25.4376 70.6018 23.2842 67.0263 23.2842H60.6484Z" fill="#E03123"/>
<path d="M86.8553 35.5055H91.0686L93.697 31.4679L96.1709 35.5055H100.519L95.7071 28.9017L99.8237 23.2849H95.6491L93.697 26.5868L91.745 23.2849H87.3192L91.6677 29.0812L86.8553 35.5055ZM79.8783 32.9214C78.1582 32.9214 76.6121 31.755 76.6121 29.4042C76.6121 27.0534 78.1776 25.887 79.8783 25.887C81.5791 25.887 83.1446 27.0534 83.1446 29.4042C83.1446 31.755 81.5791 32.9214 79.8783 32.9214ZM79.8783 35.8465C84.6907 35.8465 86.952 32.6522 86.952 29.3862C86.952 26.1202 84.6907 22.926 79.8783 22.926C75.0659 22.926 72.8047 26.1202 72.8047 29.3862C72.8047 32.6522 75.0659 35.8465 79.8783 35.8465Z" fill="#009397"/>
<path d="M26.5931 21.7767L28.8737 19.0132L26.5352 16.3035L28.5065 16.2676L30.8451 18.9773L28.5645 21.7588L26.5931 21.7767Z" fill="#009397"/>
<path d="M21.974 21.7767L24.2546 19.0132L21.916 16.3035L23.868 16.2676L26.2066 18.9773L23.926 21.7588L21.974 21.7767Z" fill="#009397"/>
<path d="M17.3363 21.7767L19.6169 19.0132L17.2783 16.3035L19.2497 16.2676L21.5882 18.9773L19.3076 21.7588L17.3363 21.7767Z" fill="#009397"/>
<path d="M12.7172 21.7767L14.9977 19.0132L12.6592 16.3035L14.6112 16.2676L16.9497 18.9773L14.6692 21.7588L12.7172 21.7767Z" fill="#009397"/>
<path d="M8.07849 21.7767L10.3591 19.0132L8.02051 16.3035L9.99185 16.2676L12.3304 18.9773L10.0498 21.7588L8.07849 21.7767Z" fill="#009397"/>
</svg>