<svg width="22" height="29" viewBox="0 0 22 29" fill="none" xmlns="http://www.w3.org/2000/svg">
<path d="M1.63716 8.71596L1.63716 2.28739C1.63716 1.90167 1.892 1.64453 2.27427 1.64453C6.60667 1.64453 9.91968 1.64453 9.91968 1.64453" stroke="#F3F3F3" stroke-width="2" stroke-miterlimit="10" stroke-linecap="round" stroke-linejoin="round"/>
<path d="M9.91968 26.7151L2.27427 26.7151C1.892 26.7151 1.63715 26.458 1.63715 26.0723L1.63715 12.5723" stroke="#F3F3F3" stroke-width="2" stroke-miterlimit="10" stroke-linecap="round" stroke-linejoin="round"/>
<path d="M20.113 12.5723C20.113 18.0366 20.113 26.0723 20.113 26.0723C20.113 26.458 19.8582 26.7151 19.4759 26.7151L13.7419 26.7151" stroke="#F3F3F3" stroke-width="2" stroke-miterlimit="10" stroke-linecap="round" stroke-linejoin="round"/>
<path d="M13.7419 1.64453L19.4759 1.64453C19.8582 1.64453 20.113 1.90167 20.113 2.28739L20.113 8.71596" stroke="#F3F3F3" stroke-width="2" stroke-miterlimit="10" stroke-linecap="round" stroke-linejoin="round"/>
<path d="M20.7507 10.6445L1.0001 10.6445" stroke="#F3F3F3" stroke-width="2" stroke-miterlimit="10" stroke-linecap="round" stroke-linejoin="round"/>
<path d="M11.8308 27.3571L11.8308 1" stroke="#F3F3F3" stroke-width="2" stroke-miterlimit="10" stroke-linecap="round" stroke-linejoin="round"/>
<path d="M12.7862 14.6301C13.6145 15.4658 15.0161 15.4658 15.8444 14.6301C16.6726 13.7944 16.6726 12.3801 15.8444 11.5444C15.0161 10.7086 11.8943 10.5801 11.8943 10.5801C11.8943 10.5801 11.958 13.7944 12.7862 14.6301Z" stroke="#F3F3F3" stroke-width="2" stroke-miterlimit="10" stroke-linecap="round" stroke-linejoin="round"/>
<path d="M10.9388 6.59358C10.1106 5.75787 8.70893 5.75787 7.88068 6.59358C7.05243 7.4293 7.05243 8.84358 7.88068 9.6793C8.70893 10.515 11.8308 10.6436 11.8308 10.6436C11.8308 10.6436 11.7671 7.49358 10.9388 6.59358Z" stroke="#F3F3F3" stroke-width="2" stroke-miterlimit="10" stroke-linecap="round" stroke-linejoin="round"/>
</svg>