<svg width="23" height="39" viewBox="0 0 23 39" fill="none" xmlns="http://www.w3.org/2000/svg">
<path d="M21.135 36.0202C21.135 36.7206 20.6876 37.1875 20.0164 37.1875H2.11861C1.44744 37.1875 1 36.7206 1 36.0202V2.16734C1 1.46694 1.44744 1 2.11861 1H20.0164C20.6876 1 21.135 1.46694 21.135 2.16734V36.0202Z" stroke="#F3F3F3" stroke-width="2" stroke-miterlimit="10" stroke-linecap="round" stroke-linejoin="round"/>
<path d="M18.03 8.03931H4.10522V30.9096H18.03V8.03931Z" stroke="#F3F3F3" stroke-width="2" stroke-miterlimit="10" stroke-linecap="round" stroke-linejoin="round"/>
<path d="M11.7458 34.2691C11.7458 34.3293 11.7232 34.3745 11.6961 34.4027C11.6698 34.4302 11.6458 34.4365 11.6272 34.4365C11.6085 34.4365 11.5845 34.4302 11.5582 34.4027C11.5311 34.3745 11.5085 34.3293 11.5085 34.2691C11.5085 34.209 11.5311 34.1638 11.5582 34.1356C11.5845 34.1081 11.6085 34.1018 11.6272 34.1018C11.6458 34.1018 11.6698 34.1081 11.6961 34.1356C11.7232 34.1638 11.7458 34.209 11.7458 34.2691Z" fill="white" stroke="#F3F3F3" stroke-width="2"/>
</svg>