<svg width="27" height="25" viewBox="0 0 27 25" fill="none" xmlns="http://www.w3.org/2000/svg">
<path d="M12.5489 1.92705C12.8483 1.00574 14.1517 1.00574 14.4511 1.92705L16.5309 8.32827C16.6648 8.74029 17.0488 9.01925 17.482 9.01925L24.2126 9.01925C25.1814 9.01925 25.5841 10.2589 24.8004 10.8283L19.3552 14.7844C19.0047 15.0391 18.8581 15.4905 18.9919 15.9025L21.0718 22.3037C21.3712 23.225 20.3167 23.9911 19.533 23.4217L14.0878 19.4656C13.7373 19.2109 13.2627 19.2109 12.9122 19.4656L7.46701 23.4217C6.6833 23.9911 5.62882 23.225 5.92817 22.3037L8.00805 15.9025C8.14193 15.4905 7.99527 15.0391 7.64478 14.7844L2.19958 10.8283C1.41586 10.2589 1.81864 9.01925 2.78736 9.01925L9.51801 9.01925C9.95123 9.01925 10.3352 8.74029 10.4691 8.32827L12.5489 1.92705Z" stroke="#F3F3F3" stroke-width="2"/>
</svg>